<svg xmlns="http://www.w3.org/2000/svg" xmlns:xlink="http://www.w3.org/1999/xlink" viewBox="0 0 297.96385 300.93093"><defs><clipPath id="a"><circle cx="148.36372" cy="148.96466" r="147.86372" style="fill:none"/></clipPath></defs><title>stellium-logo</title><g style="clip-path:url(#a)"><circle cx="148.36372" cy="148.96466" r="147.86372" style="fill:none;stroke:#fff;stroke-miterlimit:10"/><g style="opacity:0.4"><circle cx="51.76074" cy="220.79279" r="5.19862" style="fill:#fff;stroke:#fff;stroke-miterlimit:10"/><circle cx="168.53357" cy="149.7262" r="5.96016" style="fill:#fff;stroke:#fff;stroke-miterlimit:10"/><circle cx="69.01012" cy="72.87101" r="2.98008" style="fill:#fff;stroke:#fff;stroke-miterlimit:10"/><circle cx="228.57391" cy="115.86133" r="4.12279" style="fill:#fff;stroke:#fff;stroke-miterlimit:10"/><circle cx="267.61537" cy="161.09223" r="5.40586" style="fill:#fff;stroke:#fff;stroke-miterlimit:10"/><circle cx="260.31906" cy="220.79279" r="5.40586" style="fill:#fff;stroke:#fff;stroke-miterlimit:10"/><circle cx="157.36597" cy="19.69035" r="5.20744" style="fill:#fff;stroke:#fff;stroke-miterlimit:10"/><circle cx="129.63018" cy="51.05465" r="4.01198" style="fill:#fff;stroke:#fff;stroke-miterlimit:10"/><circle cx="114.60235" cy="98.79986" r="2.78072" style="fill:#fff;stroke:#fff;stroke-miterlimit:10"/><circle cx="34.13549" cy="106.71278" r="1.93807" style="fill:#fff;stroke:#fff;stroke-miterlimit:10"/><circle cx="111.10181" cy="205.13372" r="3.50054" style="fill:#fff;stroke:#fff;stroke-miterlimit:10"/><circle cx="129.63018" cy="255.70572" r="5.09606" style="fill:#fff;stroke:#fff;stroke-miterlimit:10"/><circle cx="148.36372" cy="226.19865" r="2.26928" style="fill:#fff;stroke:#fff;stroke-miterlimit:10"/><circle cx="173.3752" cy="184.41631" r="2.26928" style="fill:#fff;stroke:#fff;stroke-miterlimit:10"/><circle cx="184.36675" cy="270.29244" r="3.32583" style="fill:#fff;stroke:#fff;stroke-miterlimit:10"/><circle cx="10.5822" cy="194.94082" r="5.19862" style="fill:#fff;stroke:#fff;stroke-miterlimit:10"/><circle cx="230.15136" cy="169.99862" r="3.50054" style="fill:#fff;stroke:#fff;stroke-miterlimit:10"/><circle cx="262.02533" cy="105.61619" r="2.26928" style="fill:#fff;stroke:#fff;stroke-miterlimit:10"/><circle cx="168.73225" cy="72.87101" r="4.01198" style="fill:#fff;stroke:#fff;stroke-miterlimit:10"/><circle cx="79.08347" cy="23.23748" r="7.09327" style="fill:#fff;stroke:#fff;stroke-miterlimit:10"/><circle cx="241.82073" cy="37.01908" r="5.20744" style="fill:#fff;stroke:#fff;stroke-miterlimit:10"/><circle cx="286.85939" cy="200.13944" r="7.68596" style="fill:#fff;stroke:#fff;stroke-miterlimit:10"/><circle cx="78.64101" cy="266.96661" r="7.68596" style="fill:#fff;stroke:#fff;stroke-miterlimit:10"/><line x1="74.05864" y1="260.80178" x2="54.09174" y2="225.42543" style="fill:#fff;stroke:#fff;stroke-miterlimit:10;stroke-width:0.25px"/><line x1="47.36239" y1="218.0315" x2="14.98072" y2="197.70222" style="fill:#fff;stroke:#fff;stroke-miterlimit:10;stroke-width:0.25px"/><line x1="56.5752" y1="218.83411" x2="107.69112" y2="205.90325" style="fill:#fff;stroke:#fff;stroke-miterlimit:10;stroke-width:0.25px"/><line x1="112.06143" y1="208.49786" x2="128.01955" y2="250.89631" style="fill:#fff;stroke:#fff;stroke-miterlimit:10;stroke-width:0.25px"/><line x1="85.9793" y1="264.70292" x2="124.67741" y2="256.88059" style="fill:#fff;stroke:#fff;stroke-miterlimit:10;stroke-width:0.25px"/><line x1="113.32873" y1="202.46025" x2="164.30613" y2="153.9321" style="fill:#fff;stroke:#fff;stroke-miterlimit:10;stroke-width:0.25px"/><line x1="169.23423" y1="155.64479" x2="172.88356" y2="182.1571" style="fill:#fff;stroke:#fff;stroke-miterlimit:10;stroke-width:0.25px"/><line x1="172.42872" y1="186.47969" x2="149.40717" y2="224.21002" style="fill:#fff;stroke:#fff;stroke-miterlimit:10;stroke-width:0.25px"/><line x1="146.3583" y1="225.15634" x2="114.14096" y2="206.85718" style="fill:#fff;stroke:#fff;stroke-miterlimit:10;stroke-width:0.25px"/><line x1="131.77382" y1="251.09844" x2="147.15636" y2="228.08248" style="fill:#fff;stroke:#fff;stroke-miterlimit:10;stroke-width:0.25px"/><line x1="149.98783" y1="227.79426" x2="182.47146" y2="267.5764" style="fill:#fff;stroke:#fff;stroke-miterlimit:10;stroke-width:0.25px"/><line x1="134.53731" y1="257.06218" x2="181.04504" y2="269.38609" style="fill:#fff;stroke:#fff;stroke-miterlimit:10;stroke-width:0.25px"/><line x1="164.72439" y1="145.19081" x2="116.57274" y2="100.7762" style="fill:#fff;stroke:#fff;stroke-miterlimit:10;stroke-width:0.25px"/><line x1="112.47493" y1="97.04397" x2="71.48537" y2="74.54727" style="fill:#fff;stroke:#fff;stroke-miterlimit:10;stroke-width:0.25px"/><line x1="35.10726" y1="105.07087" x2="66.99519" y2="75.06356" style="fill:#fff;stroke:#fff;stroke-miterlimit:10;stroke-width:0.25px"/><line x1="33.18478" y1="108.37347" x2="11.65853" y2="189.86488" style="fill:#fff;stroke:#fff;stroke-miterlimit:10;stroke-width:0.25px"/><line x1="69.01424" y1="69.901" x2="77.39314" y2="30.34081" style="fill:#fff;stroke:#fff;stroke-miterlimit:10;stroke-width:0.25px"/><line x1="126.56129" y1="48.51399" x2="84.74446" y2="27.5078" style="fill:#fff;stroke:#fff;stroke-miterlimit:10;stroke-width:0.25px"/><line x1="71.6515" y1="71.52097" x2="125.89669" y2="52.50923" style="fill:#fff;stroke:#fff;stroke-miterlimit:10;stroke-width:0.25px"/><line x1="133.14306" y1="52.9726" x2="165.39259" y2="70.66647" style="fill:#fff;stroke:#fff;stroke-miterlimit:10;stroke-width:0.25px"/><line x1="117.15402" y1="97.70015" x2="165.31289" y2="74.95436" style="fill:#fff;stroke:#fff;stroke-miterlimit:10;stroke-width:0.25px"/><line x1="86.18085" y1="22.04126" x2="152.16264" y2="19.30515" style="fill:#fff;stroke:#fff;stroke-miterlimit:10;stroke-width:0.25px"/><line x1="159.24573" y1="24.55421" x2="168.14134" y2="68.92292" style="fill:#fff;stroke:#fff;stroke-miterlimit:10;stroke-width:0.25px"/><line x1="162.57753" y1="19.70042" x2="236.6174" y2="35.85522" style="fill:#fff;stroke:#fff;stroke-miterlimit:10;stroke-width:0.25px"/><line x1="171.98159" y1="70.53446" x2="237.5981" y2="40.06023" style="fill:#fff;stroke:#fff;stroke-miterlimit:10;stroke-width:0.25px"/><line x1="171.66535" y1="75.62136" x2="225.1897" y2="113.52689" style="fill:#fff;stroke:#fff;stroke-miterlimit:10;stroke-width:0.25px"/><line x1="232.47533" y1="114.57826" x2="259.92642" y2="106.47863" style="fill:#fff;stroke:#fff;stroke-miterlimit:10;stroke-width:0.25px"/><line x1="243.18458" y1="42.04447" x2="261.11472" y2="103.55248" style="fill:#fff;stroke:#fff;stroke-miterlimit:10;stroke-width:0.25px"/><line x1="173.62734" y1="146.64911" x2="225.38305" y2="118.45347" style="fill:#fff;stroke:#fff;stroke-miterlimit:10;stroke-width:0.25px"/><line x1="231.04287" y1="119.16572" x2="264.29873" y2="156.84285" style="fill:#fff;stroke:#fff;stroke-miterlimit:10;stroke-width:0.25px"/><line x1="230.15547" y1="166.50815" x2="228.09613" y2="119.95707" style="fill:#fff;stroke:#fff;stroke-miterlimit:10;stroke-width:0.25px"/><line x1="233.62633" y1="169.64308" x2="262.82349" y2="163.57992" style="fill:#fff;stroke:#fff;stroke-miterlimit:10;stroke-width:0.25px"/><line x1="231.26627" y1="173.31718" x2="257.11006" y2="216.46455" style="fill:#fff;stroke:#fff;stroke-miterlimit:10;stroke-width:0.25px"/><line x1="264.67665" y1="217.60752" x2="281.20987" y2="205.34486" style="fill:#fff;stroke:#fff;stroke-miterlimit:10;stroke-width:0.25px"/><line x1="283.6455" y1="193.17415" x2="269.8342" y2="166.03136" style="fill:#fff;stroke:#fff;stroke-miterlimit:10;stroke-width:0.25px"/><line x1="254.91732" y1="220.80286" x2="150.63712" y2="226.20872" style="fill:#fff;stroke:#fff;stroke-miterlimit:10;stroke-width:0.25px"/><line x1="108.81343" y1="202.51776" x2="35.53919" y2="108.05949" style="fill:#fff;stroke:#fff;stroke-miterlimit:10;stroke-width:0.25px"/><circle cx="148.36372" cy="294.33108" r="6.09984" style="fill:#fff;stroke:#fff;stroke-miterlimit:10"/><line x1="145.43335" y1="288.9962" x2="131.44828" y2="260.46116" style="fill:#fff;stroke:#fff;stroke-miterlimit:10;stroke-width:0.25px"/><line x1="153.7629" y1="291.51979" x2="182.11196" y2="272.72567" style="fill:#fff;stroke:#fff;stroke-miterlimit:10;stroke-width:0.25px"/><circle cx="292.058" cy="119.98412" r="5.40586" style="fill:#fff;stroke:#fff;stroke-miterlimit:10"/><line x1="263.98935" y1="106.70014" x2="287.71571" y2="116.77903" style="fill:#fff;stroke:#fff;stroke-miterlimit:10;stroke-width:0.25px"/><line x1="289.28272" y1="124.61865" x2="270.26558" y2="156.38093" style="fill:#fff;stroke:#fff;stroke-miterlimit:10;stroke-width:0.25px"/><line x1="91.98015" y1="124.81793" x2="112.5692" y2="100.68508" style="fill:#fff;stroke:#fff;stroke-miterlimit:10;stroke-width:0.25px"/><circle cx="15.78082" cy="84.72751" r="2.98008" style="fill:#fff;stroke:#fff;stroke-miterlimit:10"/><line x1="17.8467" y1="86.87191" x2="32.64473" y2="105.50925" style="fill:#fff;stroke:#fff;stroke-miterlimit:10;stroke-width:0.25px"/><line x1="18.7609" y1="84.14101" x2="66.03004" y2="72.87101" style="fill:#fff;stroke:#fff;stroke-miterlimit:10;stroke-width:0.25px"/><line x1="175.64448" y1="183.66255" x2="226.72399" y2="170.7107" style="fill:#fff;stroke:#fff;stroke-miterlimit:10;stroke-width:0.25px"/><line x1="81.50302" y1="274.09935" x2="85.03856" y2="283.25714" style="fill:#fff;stroke:#fff;stroke-miterlimit:10;stroke-width:0.25px"/><line x1="71.14144" y1="268.64639" x2="62.79853" y2="270.77046" style="fill:#fff;stroke:#fff;stroke-miterlimit:10;stroke-width:0.25px"/><circle cx="228.74373" cy="272.6611" r="5.40586" style="fill:#fff;stroke:#fff;stroke-miterlimit:10"/><line x1="187.6848" y1="270.52277" x2="223.35184" y2="272.2729" style="fill:#fff;stroke:#fff;stroke-miterlimit:10;stroke-width:0.25px"/><line x1="257.54007" y1="225.43044" x2="231.66228" y2="268.11073" style="fill:#fff;stroke:#fff;stroke-miterlimit:10;stroke-width:0.25px"/><line x1="157.36597" x2="157.36597" y2="14.4829" style="fill:#fff;stroke:#fff;stroke-miterlimit:10;stroke-width:0.25px"/><line x1="27.19246" y1="237.80343" x2="47.63542" y2="223.92937" style="fill:#fff;stroke:#fff;stroke-miterlimit:10;stroke-width:0.25px"/></g><circle cx="74.36892" cy="151.4422" r="40.23343" style="fill:#fff"/><circle cx="209.40897" cy="77.9956" r="24.24292" style="fill:#fff"/><circle cx="198.73799" cy="221.78597" r="30.00574" style="fill:#fff"/><rect x="131.72208" y="115.17175" width="9.66282" height="142.8846" transform="translate(-93.10588 213.59982) rotate(-60.50719)" style="fill:#fff"/><rect x="131.98031" y="145.05948" width="144.18624" height="9.66243" transform="translate(39.50315 342.32199) rotate(-85.75947)" style="fill:#fff"/><rect x="65.02823" y="109.88703" width="153.72114" height="9.66319" transform="translate(-37.56884 81.73759) rotate(-28.5422)" style="fill:#fff"/><circle cx="198.73799" cy="221.78597" r="21.64653" style="fill:#26a0da"/><circle cx="74.36892" cy="151.4422" r="30.70483" style="fill:#26a0da"/><circle cx="209.40897" cy="77.9956" r="15.77661" style="fill:#26a0da"/></g></svg>